<svg xmlns="http://www.w3.org/2000/svg" width="194.36" height="292.97" viewBox="0 0 194.36 292.97">
  <g id="Group_38" data-name="Group 38" transform="translate(0)">
    <g id="Group_36" data-name="Group 36">
      <path id="Path_32" data-name="Path 32" d="M676.819,647.6c-.148.168-.3.34-.44.512a56.347,56.347,0,0,0-5.419,7.439c-.129.2-.254.407-.369.608a59.659,59.659,0,0,0-7.607,20.6q-.416,2.47-.627,4.969-.151,1.925-.182,3.854c-.077,5.4.4,11.408-3.078,15.535a10.859,10.859,0,0,1-3.342,2.623,13.967,13.967,0,0,1-3.026,1.144H641.877c-.546-.081-1.092-.168-1.637-.254-.014,0-.029,0-.043,0l-.11.038-.656.22-.029.01v-.01a.235.235,0,0,0,0-.057.769.769,0,0,0,0-.105v0c0-.1-.01-.187-.01-.282l-.014-.254s0,0,0,0c0-.144-.014-.287-.019-.436-.5-12.495.723-25.406,6.621-36.408a40.676,40.676,0,0,1,7.717-10.154.579.579,0,0,1,.057-.053c6.133-5.85,14.06-9.675,22.429-9.546Q676.5,647.587,676.819,647.6Z" transform="translate(-523.195 -411.93)" fill="#f0f0f0"/>
      <path id="Path_33" data-name="Path 33" d="M676.949,647.571a50.683,50.683,0,0,0-22.018,22.082,21.825,21.825,0,0,0-2.227,6.466,12.518,12.518,0,0,0,.816,6.538,25.911,25.911,0,0,1,2.021,5.937,7.665,7.665,0,0,1-1.9,5.973,19.915,19.915,0,0,1-6.485,4.554c-2.629,1.327-5.38,2.665-7.206,5.064-.221.291-.659-.069-.439-.36,3.176-4.175,8.768-5.086,12.577-8.481a7.762,7.762,0,0,0,2.94-6.166c-.129-2.145-1.156-4.105-1.937-6.066a13.357,13.357,0,0,1-1.036-6.363,20.178,20.178,0,0,1,1.97-6.527,49.172,49.172,0,0,1,8.727-12.651,51.582,51.582,0,0,1,14-10.532c.324-.166.519.367.2.532Z" transform="translate(-523.3 -411.63)" fill="#fff"/>
      <path id="Path_34" data-name="Path 34" d="M671.1,677.2a7.6,7.6,0,0,1-2.535-9.515c.158-.329.677-.1.519.23a7.041,7.041,0,0,0,2.376,8.846c.3.206-.06.644-.36.439Z" transform="translate(-538.094 -422.326)" fill="#fff"/>
      <path id="Path_35" data-name="Path 35" d="M667.506,713.391a14.656,14.656,0,0,0,9.143-5.521c.222-.29.661.07.439.36a15.245,15.245,0,0,1-9.526,5.726c-.361.061-.414-.5-.056-.565Z" transform="translate(-537.798 -443.3)" fill="#fff"/>
      <path id="Path_36" data-name="Path 36" d="M696.666,661.5a4.3,4.3,0,0,0,3.88,1.274c.36-.065.413.5.056.565a4.823,4.823,0,0,1-4.3-1.4.293.293,0,0,1-.039-.4A.285.285,0,0,1,696.666,661.5Z" transform="translate(-552.886 -419.151)" fill="#fff"/>
      <path id="Path_37" data-name="Path 37" d="M703.288,712.856c-.22.048-.44.1-.665.148h0a57.011,57.011,0,0,0-8.8,2.671c-.22.086-.44.172-.661.263h0a59.729,59.729,0,0,0-18.4,11.815c-.019.019-.038.034-.057.053a.3.3,0,0,1-.038.038l-.024.024a58.262,58.262,0,0,0-5.893,6.492s0,.01-.01.014c-.287.373-.579.747-.867,1.13H639.468l-.029.01v-.01h-.12s0-.01.01-.014,0,0,0-.01c.034-.048.067-.1.1-.139v0a.131.131,0,0,1,.029-.038c.029-.048.062-.086.086-.129.192-.268.378-.541.57-.809.311-.445.627-.89.948-1.331a.005.005,0,0,1,0,0h0v0s0-.01.01-.014l.01-.01a85.259,85.259,0,0,1,13.481-15c.153-.134.306-.268.469-.393a54.966,54.966,0,0,1,7.358-5.252q2.126-1.257,4.38-2.307a40.751,40.751,0,0,1,12.251-3.456h.01c.01,0,.019,0,.033,0s.024,0,.034,0c8.431-.977,17.072.742,23.683,5.884C702.958,712.593,703.121,712.722,703.288,712.856Z" transform="translate(-523.233 -442.545)" fill="#f0f0f0"/>
      <path id="Path_38" data-name="Path 38" d="M639.294,766.78h.12v.01l.029-.01h7.6a18.848,18.848,0,0,0-6.788-.254c-.053.01-.1.019-.153.034-.23.043-.46.1-.689.163l-.048.014a.161.161,0,0,0-.057.029.071.071,0,0,0-.034.014Z" transform="translate(-523.207 -473.82)" fill="#fff"/>
      <path id="Path_39" data-name="Path 39" d="M723.145,719.053c-.177-.029-.349-.062-.527-.086h0a50.461,50.461,0,0,0-11.178-.565c-.187.01-.378.024-.57.034a50.423,50.423,0,0,0-15.114,3.442s0,0,0,0c-.053.019-.105.038-.153.057-1.125.455-2.236.953-3.322,1.489a21.881,21.881,0,0,0-5.673,3.82,12.2,12.2,0,0,0-2.973,4.735c-.062.182-.125.359-.182.541-.043.144-.086.292-.129.436a25.849,25.849,0,0,1-1.958,5.955,7.011,7.011,0,0,1-1.053,1.407,7.243,7.243,0,0,1-1.417,1.144H677.68a6.956,6.956,0,0,0,1.814-1.144,6,6,0,0,0,1.1-1.25c1.187-1.79,1.551-3.973,2.106-6.008.091-.33.187-.651.292-.972a12.757,12.757,0,0,1,2.714-4.735,20.189,20.189,0,0,1,5.5-4.026q1.939-1.02,3.983-1.848c.177-.077.354-.144.531-.211a51.742,51.742,0,0,1,27.063-2.853c.177.024.349.057.527.086C723.667,718.569,723.5,719.115,723.145,719.053Z" transform="translate(-543.229 -448.507)" fill="#fff"/>
      <path id="Path_40" data-name="Path 40" d="M714,716.116a7.6,7.6,0,0,1,3.7-9.123c.324-.168.6.328.275.5a7.041,7.041,0,0,0-3.428,8.494c.116.346-.436.478-.551.134Z" transform="translate(-561.96 -442.881)" fill="#fff"/>
      <path id="Path_41" data-name="Path 41" d="M689.3,747.276a14.657,14.657,0,0,0,10.625,1.1c.352-.1.485.454.134.551A15.245,15.245,0,0,1,689,747.76C688.68,747.592,688.977,747.109,689.3,747.276Z" transform="translate(-549.059 -463.879)" fill="#fff"/>
      <path id="Path_42" data-name="Path 42" d="M747.529,718.507a4.3,4.3,0,0,0,2.331,3.354c.327.164.029.647-.3.484a4.824,4.824,0,0,1-2.587-3.7.293.293,0,0,1,.209-.342A.285.285,0,0,1,747.529,718.507Z" transform="translate(-579.348 -448.788)" fill="#fff"/>
      <path id="Path_43" data-name="Path 43" d="M548.642,234.948q.194-23.776,1.934-48.012c.019-.321.043-.637.067-.957q.919-12.617,2.25-25.325v-.048a5.269,5.269,0,0,0-5.266-5.266H406.4a5.277,5.277,0,0,0-5.266,5.242q-1.838,17.5-2.882,34.828c-.029.378-.048.752-.067,1.13q-.517,8.567-.823,17.091c-.014.335-.029.67-.034,1.005A707.985,707.985,0,0,0,401.135,319.1a5.276,5.276,0,0,0,5.266,5.238H547.627a5.269,5.269,0,0,0,5.266-5.266v-.053q-1.041-9.242-1.829-18.6-.115-1.372-.225-2.743-.546-6.743-.953-13.539-.086-1.372-.158-2.743-.768-13.6-1.005-27.412c-.019-.914-.034-1.824-.048-2.743q-.086-6.743-.053-13.539C548.623,236.777,548.628,235.863,548.642,234.948Z" transform="translate(-396.832 -155.34)" fill="#f0f0f0"/>
      <path id="Path_44" data-name="Path 44" d="M632.912,224.606a5.269,5.269,0,0,0-5.266-5.266H486.42a5.277,5.277,0,0,0-5.266,5.242,747.674,747.674,0,0,0-2.365,133.112q.582,7.978,1.36,15.875.416,4.23.886,8.435c.038.364.077.728.12,1.092a5.276,5.276,0,0,0,5.266,5.237H627.646a5.269,5.269,0,0,0,5.266-5.266v-.053c-5.711-50.636-5.711-103.914,0-158.36Z" transform="translate(-438.553 -188.701)" fill="#fff"/>
      <path id="Path_45" data-name="Path 45" d="M632.912,224.606a5.269,5.269,0,0,0-5.266-5.266H486.42a5.277,5.277,0,0,0-5.266,5.242,747.674,747.674,0,0,0-2.365,133.112q.582,7.978,1.36,15.875.416,4.23.886,8.435c.038.364.077.728.12,1.092a5.276,5.276,0,0,0,5.266,5.237H627.646a5.269,5.269,0,0,0,5.266-5.266v-.053c-5.711-50.636-5.711-103.914,0-158.36ZM631.955,383.1a4.312,4.312,0,0,1-4.309,4.28H486.42a4.315,4.315,0,0,1-4.309-4.309v-.053c-.034-.306-.067-.618-.1-.924q-.5-4.395-.924-8.813-.754-7.748-1.336-15.583a746.864,746.864,0,0,1,2.36-133.04v-.048a4.315,4.315,0,0,1,4.309-4.309H627.646a4.31,4.31,0,0,1,4.309,4.285C626.244,279.071,626.244,332.407,631.955,383.1Z" transform="translate(-438.553 -188.701)" fill="#e4e4e4"/>
      <path id="Path_142" data-name="Path 142" d="M515.66,321.63a1.372,1.372,0,0,0,0,2.744H630.427a1.372,1.372,0,0,0,0-2.744Z" transform="translate(-458.058 -242.022)" fill="#e6e6e6"/>
      <path id="Path_143" data-name="Path 143" d="M515.66,338.83a1.372,1.372,0,0,0,0,2.744h77.911a1.372,1.372,0,1,0,0-2.744Z" transform="translate(-458.058 -250.987)" fill="#e6e6e6"/>
      <path id="Path_142-2" data-name="Path 142" d="M515.66,355.641a1.372,1.372,0,0,0,0,2.744H630.427a1.372,1.372,0,0,0,0-2.744Z" transform="translate(-458.058 -259.75)" fill="#e6e6e6"/>
      <path id="Path_143-2" data-name="Path 143" d="M515.66,372.84a1.372,1.372,0,0,0,0,2.744h77.911a1.372,1.372,0,1,0,0-2.744Z" transform="translate(-458.058 -268.716)" fill="#e6e6e6"/>
      <path id="Path_142-3" data-name="Path 142" d="M515.66,418.63a1.372,1.372,0,0,0,0,2.744H630.427a1.372,1.372,0,0,0,0-2.744Z" transform="translate(-458.058 -292.584)" fill="#e6e6e6"/>
      <path id="Path_143-3" data-name="Path 143" d="M515.66,435.83a1.372,1.372,0,0,0,0,2.744h77.911a1.372,1.372,0,1,0,0-2.744Z" transform="translate(-458.058 -301.55)" fill="#e6e6e6"/>
      <path id="Path_142-4" data-name="Path 142" d="M515.66,452.641a1.372,1.372,0,0,0,0,2.744H630.427a1.372,1.372,0,0,0,0-2.744Z" transform="translate(-458.058 -310.313)" fill="#e6e6e6"/>
      <path id="Path_143-4" data-name="Path 143" d="M515.66,469.84a1.372,1.372,0,0,0,0,2.744h77.911a1.372,1.372,0,1,0,0-2.744Z" transform="translate(-458.058 -319.279)" fill="#e6e6e6"/>
      <path id="Path_154" data-name="Path 154" d="M539.554,279.884h-21.92a1.072,1.072,0,0,1-1.071-1.071V275.3a1.072,1.072,0,0,1,1.071-1.071h21.92a1.072,1.072,0,0,1,1.071,1.071v3.512A1.072,1.072,0,0,1,539.554,279.884Z" transform="translate(-459.244 -217.314)" fill="blue"/>
      <path id="Path_46" data-name="Path 46" d="M705.495,519.1l-6.714,2.219-3.357,1.109a7.552,7.552,0,0,1-3.267.6,2.2,2.2,0,0,1-1.88-1.332,1.93,1.93,0,0,1,.834-1.969c1.6-1.219,3.628.022,4.763,1.284,1.389,1.544,2.175,3.537,3.477,5.153a12.4,12.4,0,0,0,4.3,3.425,10,10,0,0,0,10.34-.884c3.539-2.73,3.9-7.462,3.919-11.59a.719.719,0,0,0-1.436,0c-.017,3.741-.23,8.328-3.641,10.669a8.939,8.939,0,0,1-10.571-.742,17.319,17.319,0,0,1-3.809-4.866,8.834,8.834,0,0,0-4.431-4.139,4,4,0,0,0-4.781,1.669,3.038,3.038,0,0,0,1.4,4.34c2.345,1.117,5.027-.192,7.285-.938l7.945-2.626c.873-.289.5-1.676-.382-1.385Z" transform="translate(-549.034 -343.561)" fill="blue"/>
      <path id="Path_47" data-name="Path 47" d="M271.143,567.4l-4.708,1.551-8.224-17.421,6.949-2.289Z" transform="translate(-134.578 -286.303)" fill="#9f616a"/>
      <path id="Path_48" data-name="Path 48" d="M669.748,745.036l-.321-.972-.843-2.561-.574-1.743-1.57.517-.326-.024-4.313-.292-.574-.038-.852-.057-.881-.062-2.461,3.576h0a7.3,7.3,0,0,0-4.27,3.677c-.053.105-.1.211-.148.316a6.151,6.151,0,0,0-.3.795,7.283,7.283,0,0,0-.2,3.629,8.325,8.325,0,0,0,.235.886l.014.048.057.177.345-.115,3.026-1,10.6-3.49,2.1-.694.646-.215h0l1.254-.412Z" transform="translate(-529.825 -459.979)" fill="#2f2e41"/>
      <path id="Path_49" data-name="Path 49" d="M184.039,574.912h-4.957l-2.358-19.12h7.316Z" transform="translate(-92.102 -289.716)" fill="#9f616a"/>
      <path id="Path_50" data-name="Path 50" d="M567.969,569.592l-2.2,3.8s-2.415.66-1.625,8.53c.557,5.558.738,30.442,2.141,46.609.584,6.728,1.38,11.947,2.5,13.633l.691.619,7.213.689.182-.064,2.649-18.707a31.432,31.432,0,0,0-.211-10.106h0l-.479-5.266,6.641-26.664a346.507,346.507,0,0,1,11.072,33.366c1.037,3.918,4.977,6.41,6.47,9.772.5,1.126.992,2.218,1.472,3.265,3.159,6.9,4.743,11.918,5.941,12.335h.957l5.745-1.915,1.13-2.841-8.79-25.883-6.582-41.791C590.35,562.232,578.585,561.482,567.969,569.592Z" transform="translate(-483.965 -368.212)" fill="#2f2e41"/>
      <path id="Path_51" data-name="Path 51" d="M604.669,443.06a19.526,19.526,0,0,0-1.522-2.743,14.1,14.1,0,0,0-5.347-4.888l-1.886-.417-3.38-.747-1.781-2-2.92-3.27H577.779l-1.345,3.27-1.13,2.743-.484,1.168-8.608,4.3s0,0-.01,0q.172,1.293.34,2.571.366,2.779.689,5.491.165,1.379.316,2.743.481,4.28.828,8.411.309,3.691.493,7.277a159.979,159.979,0,0,1,.067,16.3c-.067,1.278,1.2,2.734,1.1,3.983-.168,2.039-1.743,3.849-2.02,5.8a32.228,32.228,0,0,1-.4,3.6,4.025,4.025,0,0,1-.373.948s0,0,0,.01c-3.447,6.156-.742,3.217-1.063,4.6l.153.038c.072.019.292.077.646.158,2.025.483,10.374-7.353,15.98-7.353,3.366,0,12.275,5.534,15.257,5.936,2.36.316,4.467.6,5.721-.5a2.933,2.933,0,0,0,.809-1.187l.014-.043,0-.043-.12-1.6-.072-.957-1.024-13.74a4.871,4.871,0,0,1-.622-5.118l.211-.445-.776-10.379-.144-1.939-.053-.656v0l-.373-5.012.9-2.738v0l1.752-5.333.9-2.743.565-1.723.038-.115a19.6,19.6,0,0,0-1.269-3.653Z" transform="translate(-484.738 -297.99)" fill="blue"/>
      <path id="Path_52" data-name="Path 52" d="M650.2,519.518l-9.651-24.942-4.482-9.108,8.62-4.762,6.942,12.231,4.654,25.555a4.447,4.447,0,1,1-6.081,1.026Z" transform="translate(-521.539 -324.943)" fill="#9f616a"/>
      <path id="Path_53" data-name="Path 53" d="M645.17,471.281l-2.47-1.6-2.839-5.309L638.4,461.63l-.924-1.723-.393-.737-4.438-3.03-3-2.049-2.442,2.049-1.163.977,1.139,4.514.689,2.743,1.5,5.951,4.409,7.8,1.1,1.939.627,1.115,0,.01.086.148,11.14-.464.349-.014.019-.795.01-.287c0-.144,0-.287,0-.431a17.69,17.69,0,0,0-1.948-8.062Z" transform="translate(-516.311 -311.069)" fill="blue"/>
      <path id="Path_54" data-name="Path 54" d="M483.758,513.269,503.5,495.228l6.862-7.481,7.564,6.305-8.88,10.906L486.92,518.564a4.448,4.448,0,1,1-3.162-5.3Z" transform="translate(-439.215 -328.613)" fill="#9f616a"/>
      <path id="Path_55" data-name="Path 55" d="M551.662,463.554l-.038-2.743-.072-5.491-.029-2.13-.081-.057a3.6,3.6,0,0,0-1.479-.555,4.29,4.29,0,0,0-1.4,0,5.008,5.008,0,0,0-.723.168s0,0-.01,0a8.281,8.281,0,0,0-3.624,2.566l0,0a35.76,35.76,0,0,0-3.8,5.491c-.541.919-1.058,1.848-1.542,2.743-1.829,3.4-3.145,6.353-3.169,6.405l-5.467,7.1.077.129,1.2,2.054,4.4,7.53.7,1.2,1.786-.953a10.382,10.382,0,0,0,4.653-5.065l.637-2.432.235-.278L550,471.966l1.743-2.087Z" transform="translate(-466.363 -310.25)" fill="blue"/>
      <circle id="Ellipse_5" data-name="Ellipse 5" cx="9.216" cy="9.216" r="9.216" transform="translate(86.495 127.784) rotate(-80.783)" fill="#9f616a"/>
      <path id="Path_56" data-name="Path 56" d="M579.97,385.286c-.41-1.434-1.229-2.662-.819-2.662s.614-1.024.614-1.024.41-.2.614,0,.41-1.434.41-1.434.2-.614.41-.2.2.2.41-.41,1.229-1.024,1.229-1.024,3.891.2,4.506-.614,7.578-.2,9.011.819,7.082,2.854,3.73,8.6c1.915,3.351-.944,9.328-1.683,10.037-1.168,1.121-1.977,1.526-7.5,2.625-1.082.215-3.739-8.833-3.739-8.833S580.38,386.719,579.97,385.286Z" transform="translate(-491.811 -271.162)" fill="#2f2e41"/>
      <path id="Path_57" data-name="Path 57" d="M570.693,746.653l-.3-.12-5.333-2.173-.819-.33-3.456,2.623h0a7.372,7.372,0,0,0-7.363,7.368v.239h18.924v-7.607Z" transform="translate(-478.456 -462.205)" fill="#2f2e41"/>
      <path id="Path_58" data-name="Path 58" d="M598.473,765.47a.572.572,0,0,1-.57.574H500.577a.572.572,0,1,1,0-1.144H597.9a.571.571,0,0,1,.57.57Z" transform="translate(-450.613 -473.084)" fill="#ccc"/>
      <path id="Path_59" data-name="Path 59" d="M444.752,155.34A64.281,64.281,0,0,1,397.9,213.63c-.014.335-.029.67-.034,1.005a65.246,65.246,0,0,0,47.84-59.3Z" transform="translate(-397.373 -155.34)" fill="#fff"/>
      <path id="Path_60" data-name="Path 60" d="M431.022,155.34a64.414,64.414,0,0,1-31.295,40.07c-.029.378-.048.752-.067,1.13a65.406,65.406,0,0,0,32.353-41.2Z" transform="translate(-398.306 -155.34)" fill="#fff"/>
    </g>
  </g>
</svg>
